<svg version="1.1" xmlns="http://www.w3.org/2000/svg" xmlns:xlink="http://www.w3.org/1999/xlink" width="218.40224" height="219.46388" viewBox="0,0,218.40224,219.46388"><defs><radialGradient cx="320.00001" cy="180" r="68.3" gradientUnits="userSpaceOnUse" id="color-1"><stop offset="0" stop-color="#4a90ff"/><stop offset="1" stop-color="#4a90ff" stop-opacity="0"/></radialGradient></defs><g transform="translate(-210.69891,-85.96806)"><g data-paper-data="{&quot;isPaintingLayer&quot;:true}" fill-rule="nonzero" stroke="none" stroke-width="0" stroke-linecap="butt" stroke-linejoin="miter" stroke-miterlimit="10" stroke-dasharray="" stroke-dashoffset="0" style="mix-blend-mode: normal"><path d="M320.00001,247.47711c-37.72105,0 -68.3,-30.21053 -68.3,-67.47711c0,-37.26658 30.57895,-67.47711 68.3,-67.47711c37.72105,0 68.3,30.21053 68.3,67.47711c0,37.26658 -30.57895,67.47711 -68.3,67.47711z" fill="url(#color-1)"/><path d="M313.28788,305.43193c0,0 -17.93238,-13.93905 -34.22354,-31.13923c-15.69783,-16.57375 -29.77646,-36.38996 -29.77646,-38.52744c0,-21.49436 2,-62 2,-62c0,0 26.348,40.3116 38.7116,57.054c9.62066,13.028 29.32706,35.08182 29.32706,35.08182l76.29468,-39.13582c0,0 -24.76206,33.4237 -39.21946,47.1202c-12.77953,12.10693 -43.11387,31.54648 -43.11387,31.54648z" fill="#565756"/><path d="M210.69891,110.0527c0,0 20.94979,-8.77346 43.93407,-14.51551c22.14718,-5.53292 46.32341,-8.06278 48.18527,-7.01288c18.72278,10.55769 53.02309,32.19553 53.02309,32.19553c0,0 -48.05536,3.15016 -68.71174,5.69594c-16.07364,1.98099 -44.96321,8.31385 -44.96321,8.31385l-3.38526,85.67982c0,0 -16.95118,-37.98633 -21.78033,-57.30704c-4.2687,-17.07842 -6.30188,-53.04971 -6.30188,-53.04971z" fill="#565756"/><path d="M429.10115,114.31573c0,0 -2.36169,22.58959 -8.35934,45.50851c-5.77921,22.08419 -15.16689,44.50654 -16.98175,45.63575c-18.25011,11.35522 -53.69861,31.05575 -53.69861,31.05575c0,0 20.30782,-43.66731 27.99167,-63.00963c5.97914,-15.05111 14.29362,-43.4339 14.29362,-43.4339l-73.53445,-44.10415c0,0 41.46041,3.36725 60.72729,8.40683c17.03084,4.45471 49.56157,19.94084 49.56157,19.94084z" data-paper-data="{&quot;index&quot;:null}" fill="#565756"/><path d="M362.29351,180c0,23.87715 -18.93541,43.23333 -42.29348,43.23333c-23.35801,0 -42.29348,-19.35617 -42.29348,-43.23333c0,-23.87715 18.93541,-43.23333 42.29348,-43.23333c23.35801,0 42.29348,19.35617 42.29348,43.23333z" fill="#ffffff"/></g></g></svg>