<svg version="1.1" xmlns="http://www.w3.org/2000/svg" xmlns:xlink="http://www.w3.org/1999/xlink" width="105.43502" height="102.66078" viewBox="0,0,105.43502,102.66078"><defs><radialGradient cx="319.01012" cy="178.01946" r="36.95886" gradientUnits="userSpaceOnUse" id="color-1"><stop offset="0" stop-color="#4bacff"/><stop offset="1" stop-color="#4bacff" stop-opacity="0"/></radialGradient></defs><g transform="translate(-261.33857,-137.16581)"><g data-paper-data="{&quot;isPaintingLayer&quot;:true}" fill-rule="nonzero" stroke="none" stroke-width="0" stroke-linecap="butt" stroke-linejoin="miter" stroke-miterlimit="10" stroke-dasharray="" stroke-dashoffset="0" style="mix-blend-mode: normal"><g fill="#1d1d1d"><path d="M316.9778,239.82659c0,0 -10.41416,-6.28795 -20.12114,-14.35144c-9.35345,-7.76981 -18.01057,-17.30435 -18.12645,-18.412c-1.16528,-11.1385 -2.284,-32.23308 -2.284,-32.23308c0,0 16.37659,19.5154 23.94335,27.54653c5.88803,6.24937 17.69761,16.64991 17.69761,16.64991l38.97107,-24.25992c0,0 -11.52498,18.61193 -18.56929,26.46363c-6.22677,6.94045 -21.51114,18.59637 -21.51114,18.59637z"/><path d="M261.33857,160.39727c0,0 10.80804,-5.6392 22.87621,-9.81361c11.62864,-4.02239 24.51294,-6.59439 25.57267,-6.14744c10.65656,4.49448 30.30395,13.91823 30.30395,13.91823c0,0 -25.71211,4.13899 -36.69974,6.53566c-8.54996,1.86496 -23.76671,6.65355 -23.76671,6.65355l2.82164,44.57635c0,0 -11.18935,-18.80057 -14.83779,-28.56078c-3.22501,-8.62748 -6.27022,-27.16196 -6.27022,-27.16196z"/><path d="M363.4054,153.7867c0,0 -0.04737,11.82924 -2.03523,24.01879c-1.91546,11.7456 -5.75614,23.85465 -6.67242,24.53447c-9.21401,6.83626 -27.23874,18.89417 -27.23874,18.89417c0,0 8.57056,-23.68789 11.66053,-34.11199c2.40443,-8.11144 5.34394,-23.25324 5.34394,-23.25324l-41.99708,-19.01949c0,0 22.51335,-0.41763 33.16382,1.18895c9.4144,1.42013 27.77519,7.74834 27.77519,7.74834z" data-paper-data="{&quot;index&quot;:null}"/></g><path d="M322.66826,212.98649c-20.31677,1.96752 -38.42456,-12.09276 -40.4449,-31.40452c-2.02033,-19.31176 12.81185,-36.56201 33.12862,-38.52953c20.31677,-1.96752 38.42456,12.09276 40.4449,31.40452c2.02033,19.31176 -12.81185,36.56201 -33.12862,38.52953z" fill="url(#color-1)"/><path d="M320.346,232.60646c0,0 -10.41416,-6.28795 -20.12114,-14.35144c-9.35345,-7.76982 -18.01058,-17.30435 -18.12646,-18.41201c-1.16527,-11.1385 -2.284,-32.23307 -2.284,-32.23307c0,0 16.37659,19.5154 23.94336,27.54652c5.88803,6.24937 17.69761,16.64991 17.69761,16.64991l38.97107,-24.25991c0,0 -11.52498,18.61193 -18.56929,26.46363c-6.22677,6.94046 -21.51114,18.59637 -21.51114,18.59637z" fill="#565756"/><path d="M264.70676,153.17714c0,0 10.80804,-5.63919 22.87621,-9.81361c11.62864,-4.02238 24.51294,-6.59439 25.57266,-6.14744c10.65656,4.49448 30.30395,13.91824 30.30395,13.91824c0,0 -25.71211,4.13899 -36.69973,6.53565c-8.54996,1.86495 -23.76672,6.65355 -23.76672,6.65355l2.82164,44.57635c0,0 -11.18936,-18.80057 -14.83779,-28.56078c-3.22502,-8.62748 -6.27022,-27.16196 -6.27022,-27.16196z" fill="#565756"/><path d="M366.77359,146.56657c0,0 -0.04737,11.82924 -2.03523,24.01879c-1.91547,11.7456 -5.75614,23.85465 -6.67242,24.53447c-9.21401,6.83626 -27.23875,18.89417 -27.23875,18.89417c0,0 8.57057,-23.6879 11.66053,-34.11199c2.40443,-8.11144 5.34394,-23.25324 5.34394,-23.25324l-41.99708,-19.01949c0,0 22.51336,-0.41764 33.16382,1.18895c9.41441,1.42013 27.77519,7.74834 27.77519,7.74834z" data-paper-data="{&quot;index&quot;:null}" fill="#565756"/><path d="M341.78963,175.81345c1.29445,12.37328 -7.85491,23.39142 -20.4357,24.60977c-12.58076,1.21835 -23.82886,-7.82446 -25.12332,-20.19774c-1.29445,-12.37328 7.85491,-23.39142 20.4357,-24.60977c12.58076,-1.21835 23.82886,7.82446 25.12332,20.19774z" fill="#ffffff"/></g></g></svg>