<svg version="1.1" xmlns="http://www.w3.org/2000/svg" xmlns:xlink="http://www.w3.org/1999/xlink" width="323.85115" height="327.44185" viewBox="0,0,323.85115,327.44185"><defs><radialGradient cx="320.00001" cy="180" r="163.72295" gradientUnits="userSpaceOnUse" id="color-1"><stop offset="0" stop-color="#2484ff" stop-opacity="0.7451"/><stop offset="1" stop-color="#2484ff" stop-opacity="0"/></radialGradient></defs><g transform="translate(-158.07443,-16.27907)"><g data-paper-data="{&quot;isPaintingLayer&quot;:true}" fill-rule="nonzero" stroke-linejoin="miter" stroke-miterlimit="10" stroke-dasharray="" stroke-dashoffset="0" style="mix-blend-mode: normal"><path d="M481.53264,191.05549c-6.17413,90.21065 -83.49988,158.39112 -172.71188,152.28534c-89.21201,-6.10578 -156.52752,-84.18568 -150.35339,-174.39633c6.17413,-90.21064 83.49987,-158.39111 172.71188,-152.28533c89.21201,6.10578 156.52751,84.18568 150.35338,174.39633z" fill="url(#color-1)" stroke="none" stroke-width="0" stroke-linecap="butt"/><g stroke="none" stroke-width="1" stroke-linecap="butt"><path d="M274.97906,66.4959c-17.18145,20.97794 -43.92324,55.79356 -61.23314,76.64222c-2.14394,2.58223 15.16048,54.437 15.16048,54.437c0,0 57.98115,33.92471 76.5173,56.4452c6.17497,7.50227 -11.25921,22.58257 -11.04012,22.93445c-2.03536,-0.66584 -27.85003,-2.17005 -48.48868,-9.68618c-1.19185,-0.43404 -54.3901,-59.34813 -54.3901,-59.34813l-4.3855,-53.81862l22.41341,-68.05331c0,0 66.20915,-20.48392 65.44638,-19.5526z" data-paper-data="{&quot;index&quot;:null}" fill="#191919"/><path d="M361.36527,288.76345c3.02431,0.36437 4.68738,-0.17968 5.57595,-3.08559c1.77618,-5.8086 17.95483,-45.26606 17.95483,-45.26606c0,0 7.82858,-75.7358 8.28459,-76.76726c0.47293,0.75404 19.03051,-27.08273 25.92355,-16.27927c8.16188,12.79212 11.88447,43.73867 17.30414,54.45816c1.37804,2.72563 -23.66291,96.17754 -41.05338,126.02125c-2.23207,3.83045 -4.5916,4.73021 -9.23167,3.78151c-16.46965,-3.36736 -129.45743,-59.15743 -129.45743,-59.15743c0,0 22.6327,-10.90909 21.92177,-11.61333c20.85714,2.44798 67.29884,26.04319 82.77765,27.908z" data-paper-data="{&quot;index&quot;:null}" fill="#191919"/><path d="M394.24292,87.91216c7.72827,21.38355 54.22595,103.79723 53.84639,103.87904c-3.4979,-6.61431 -37.61786,-12.609 -41.13484,-19.21219c-9.36548,-17.58397 -28.11258,-52.74254 -28.11258,-52.74254l-51.52749,-25.27651l-71.05517,3.68718c0,0 21.82339,-28.16915 22.39782,-29.65349c2.36766,-6.11828 9.26793,-5.2043 14.00455,-6.63834c14.56137,-4.40848 43.57939,-6.13351 45.7769,-5.312c14.03304,5.24613 52.94491,23.35675 55.80444,31.26886z" data-paper-data="{&quot;index&quot;:null}" fill="#191919"/><path d="M291.25462,48.21936c-17.18145,20.97794 -43.92324,55.79356 -61.23314,76.64222c-2.14394,2.58224 15.16048,54.437 15.16048,54.437c0,0 64.60042,77.9715 65.47718,79.37965c-2.03536,-0.66584 -27.85003,-2.17005 -48.48868,-9.68619c-1.19185,-0.43404 -54.3901,-59.34813 -54.3901,-59.34813l-4.3855,-53.81862l8.59853,-47.09493c0,0 80.02403,-41.44231 79.26126,-40.51099z" data-paper-data="{&quot;index&quot;:null}" fill="#575757"/><path d="M373.64083,264.98691c3.02431,0.36437 4.68738,-0.17968 5.57595,-3.08559c1.77618,-5.8086 17.95483,-45.26606 17.95483,-45.26606c0,0 0.19369,-70.86174 0.64972,-71.8932c1.03292,1.6469 27.68704,32.15336 37.68384,51.92589c1.37804,2.72563 -36.53718,108.99475 -41.17725,108.04605c-25.33875,-5.18072 -45.82501,-9.79409 -69.74741,-19.52359c-18.80143,-7.64677 -36.85371,-16.75036 -53.3753,-28.43387c-1.26213,-0.89251 -2.22836,-2.16041 -4.25945,-4.17241c20.85714,2.44798 40.06558,4.70245 59.75515,7.01729c15.96874,1.81903 31.46112,3.52067 46.93994,5.38548z" data-paper-data="{&quot;index&quot;:null}" fill="#575757"/><path d="M405.01848,73.63562c7.72827,21.38356 38.38552,126.52167 38.00595,126.60348c-3.4979,-6.61431 -21.77742,-35.33343 -25.2944,-41.93663c-9.36548,-17.58397 -28.11258,-52.74254 -28.11258,-52.74254l-51.52749,-25.27651l-71.05517,3.68718c0,0 23.58944,-26.1436 24.16387,-27.62794c2.36766,-6.11828 7.50188,-7.22985 12.2385,-8.6639c14.56137,-4.40848 43.57939,-6.13351 45.7769,-5.312c14.03304,5.24613 52.94491,23.35675 55.80444,31.26886z" data-paper-data="{&quot;index&quot;:null}" fill="#575757"/></g><path d="M374.9425,167.98242c-0.99751,14.57475 -25.13969,-1.8148 -35.56721,6.20636c-8.29986,6.3845 -1.68114,38.86147 -12.70196,38.10719c-24.86683,-1.70192 -43.5731,-24.30112 -41.78161,-50.47674c1.05485,-15.41244 22.48099,-23.6283 33.89721,-31.54345c7.97244,-5.52749 4.14694,-13.46992 14.37196,-12.7701c10.19781,0.69795 1.85954,18.9104 8.99635,25.44272c10.26594,9.39641 33.84206,9.59294 32.78526,25.03402z" fill="#ffffff" stroke="none" stroke-width="0" stroke-linecap="butt"/><path d="M311.82623,150.08037l-82.26752,-29.43907l42.2933,-50.09225l-22.70348,42.15906l79.96805,7.3778l-3.24683,5.63243c-4.86222,-1.77056 -59.06159,-1.56396 -58.87048,-0.60841c0.36619,1.83096 45.02601,16.84721 48.85521,17.98241z" fill="#ffffff" stroke="none" stroke-width="0" stroke-linecap="round"/><path d="M366.88566,169.87698l2.90759,94.92775l-45.69692,-6.23592l7.80603,-10.64252l-4.92676,-85.51834l11.24763,2.10495c0.16965,0.50209 0.37808,0.98632 0.62174,1.44911c1.81498,3.62995 0.65123,6.33208 0.8543,10.84793c0.08461,1.88162 8.00825,66.84175 15.45,59.4c1.21478,-1.21478 4.61084,-59.4487 4.55,-61.32582c-0.06132,-1.8918 -0.06153,-4.09464 -0.18044,-6.38582z" fill="#ffffff" stroke="none" stroke-width="0" stroke-linecap="round"/><path d="M392.42447,125.08154l-23.75645,31.70609c0,0 -21.1971,0.79609 -26.09416,-2.2779c-0.38415,-0.24114 -0.77495,-0.51548 -1.17098,-0.81951c0.21077,-0.12091 0.43049,-0.23358 0.66039,-0.33678c7.98714,-3.58507 39.05886,-30.0435 33.53601,-30.0435c-0.16242,0 -34.03692,8.90129 -37.31743,10.10207c-3.78656,1.386 -6.68721,3.08058 -9.39014,5.0756c-3.76097,-5.75429 -6.47612,-10.73359 -6.47612,-10.73359l71.20981,-20.21919l29.41293,58.67748z" fill="#ffffff" stroke="none" stroke-width="0" stroke-linecap="round"/><path d="M260.13538,97.27817l13.75,-20.01048l27.69944,-33.65836" fill="none" stroke-opacity="0.33333" stroke="#72a4ff" stroke-width="4" stroke-linecap="round"/><path d="M282.45074,45.50157l-62.7262,76.97356" fill="none" stroke-opacity="0.33333" stroke="#72a4ff" stroke-width="4" stroke-linecap="round"/><path d="M276.8734,264.80911l106.47269,12.04884" fill="none" stroke-opacity="0.33333" stroke="#72a4ff" stroke-width="4" stroke-linecap="round"/><path d="M287.87461,238.57898l11.30635,15.69386l-25.36392,-0.46614" fill="none" stroke-opacity="0.33333" stroke="#72a4ff" stroke-width="4" stroke-linecap="round"/><path d="M406.27734,157.06182l34.95346,45.8826" fill="none" stroke-opacity="0.33333" stroke="#72a4ff" stroke-width="4" stroke-linecap="round"/><path d="M446.85696,190.31412l-49.67178,-85.936" fill="none" stroke-opacity="0.33333" stroke="#72a4ff" stroke-width="4" stroke-linecap="round"/><path d="M351.30689,112.17654l-5.57695,1.51705c-10.09135,-4.77824 -21.46674,-6.29617 -32.7267,-3.5954c-2.73135,0.65512 -5.35614,1.53455 -7.86281,2.61704l-42.53618,-4.25341" fill="none" stroke="#ffffff" stroke-width="3" stroke-linecap="butt"/><path d="M375.33248,257.42995l1.60238,-69.69801c3.10055,-9.95811 3.68581,-21.0865 1.16286,-32.29861l7.28323,-12.35442" fill="none" stroke="#ffffff" stroke-width="3" stroke-linecap="butt"/><path d="M231.64008,132.30677l43.33194,18.58464c-1.95519,8.90518 -1.96207,18.55099 0.36129,28.23752c6.39173,26.64832 28.36113,45.02206 52.20993,45.7407l-3.65289,15.51233l-13.64668,9.22433" fill="none" stroke="#ffffff" stroke-width="3" stroke-linecap="butt"/><path d="M373.62826,168.33253c0,25.46033 -19.60769,46.1 -43.795,46.1c-24.18731,0 -43.795,-20.63967 -43.795,-46.1c0,-25.46033 19.60769,-46.1 43.795,-46.1c24.18731,0 43.795,20.63967 43.795,46.1z" fill="#ffffff" stroke="none" stroke-width="0" stroke-linecap="butt"/></g></g></svg>