<svg version="1.1" xmlns="http://www.w3.org/2000/svg" xmlns:xlink="http://www.w3.org/1999/xlink" width="103.80785" height="109.01003" viewBox="0,0,103.80785,109.01003"><defs><radialGradient cx="319.35353" cy="173.01113" r="36.95886" gradientUnits="userSpaceOnUse" id="color-1"><stop offset="0" stop-color="#4bacff"/><stop offset="1" stop-color="#4bacff" stop-opacity="0"/></radialGradient></defs><g transform="translate(-261.83401,-132.49477)"><g data-paper-data="{&quot;isPaintingLayer&quot;:true}" fill-rule="nonzero" stroke="none" stroke-width="0" stroke-linecap="butt" stroke-linejoin="miter" stroke-miterlimit="10" stroke-dasharray="" stroke-dashoffset="0" style="mix-blend-mode: normal"><g fill="#1d1d1d"><path d="M321.3259,241.5048c0,0 -10.705,-5.77893 -20.78918,-13.36541c-9.71691,-7.31017 -18.82332,-16.41657 -18.99243,-17.51735c-1.70054,-11.06943 -3.83422,-32.08562 -3.83422,-32.08562c0,0 17.29776,18.70377 25.24264,26.36104c6.18227,5.95845 18.47919,15.77797 18.47919,15.77797l37.75706,-26.10924c0,0 -10.61494,19.14555 -17.2728,27.3275c-5.88517,7.23237 -20.59025,19.61111 -20.59025,19.61111z"/><path d="M261.92465,164.84821c0,0 -0.96064,-12.05268 3.37287,-14.28795c4.07306,-2.10093 13.26108,5.68552 19.00399,3.38364c11.42135,-4.57795 24.16678,-7.76768 25.24681,-7.3723c10.86071,3.97587 30.93929,12.44213 30.93929,12.44213c0,0 -25.48285,5.3729 -36.34226,8.29614c-8.45018,2.2747 -23.41857,7.79082 -23.41857,7.79082l4.9659,44.38865c0,0 -12.0821,-18.23968 -16.19652,-27.81278c-3.63691,-8.46209 -7.57151,-26.82834 -7.57151,-26.82834z"/><path d="M363.55449,153.3281c0,0 0.52258,11.81779 -0.87573,24.08895c-1.34737,11.82424 -4.60022,24.10426 -5.48269,24.82744c-8.87396,7.27222 -26.29686,20.1845 -26.29686,20.1845c0,0 7.41941,-24.07328 10.00359,-34.63414c2.01086,-8.21786 4.21748,-23.48369 4.21748,-23.48369l-42.86461,-16.97413c0,0 22.46709,-1.50176 33.18259,-0.41015c9.47189,0.96493 28.11623,6.40123 28.11623,6.40123z" data-paper-data="{&quot;index&quot;:null}"/></g><path d="M324.69202,207.76132c-20.19839,2.94403 -38.96253,-10.22756 -41.9109,-29.41956c-2.94836,-19.192 11.03554,-37.13679 31.23393,-40.08081c20.19839,-2.94403 38.96253,10.22756 41.9109,29.41956c2.94836,19.192 -11.03554,37.13679 -31.23393,40.08081z" fill="url(#color-1)"/><path d="M323.31767,227.47039c0,0 -10.705,-5.77893 -20.78918,-13.36541c-9.71691,-7.31018 -18.82333,-16.41657 -18.99244,-17.51736c-1.70053,-11.06943 -3.83422,-32.08561 -3.83422,-32.08561c0,0 17.29776,18.70377 25.24265,26.36103c6.18227,5.95845 18.47919,15.77797 18.47919,15.77797l37.75706,-26.10923c0,0 -10.61494,19.14555 -17.2728,27.3275c-5.88517,7.23238 -20.59025,19.61111 -20.59025,19.61111z" fill="#565756"/><path d="M263.91641,150.8138c0,0 10.52381,-6.15334 22.37686,-10.90431c11.42135,-4.57794 24.16678,-7.76768 25.2468,-7.3723c10.86071,3.97587 30.93929,12.44214 30.93929,12.44214c0,0 -25.48285,5.3729 -36.34225,8.29613c-8.45019,2.27469 -23.41858,7.79082 -23.41858,7.79082l4.9659,44.38865c0,0 -12.08211,-18.23968 -16.19652,-27.81278c-3.63692,-8.46209 -7.57151,-26.82834 -7.57151,-26.82834z" fill="#565756"/><path d="M365.54625,139.29369c0,0 0.52258,11.81779 -0.87573,24.08895c-1.34738,11.82424 -4.60022,24.10426 -5.48269,24.82744c-8.87396,7.27222 -26.29687,20.1845 -26.29687,20.1845c0,0 7.41942,-24.07329 10.00359,-34.63414c2.01086,-8.21786 4.21748,-23.48369 4.21748,-23.48369l-42.86461,-16.97413c0,0 22.4671,-1.50177 33.18259,-0.41015c9.4719,0.96493 28.11623,6.40123 28.11623,6.40123z" data-paper-data="{&quot;index&quot;:null}" fill="#565756"/><path d="M342.00032,169.71025c1.53117,9.96698 -9.46982,32.35448 -18.21823,36.53234c-2.04475,0.97648 1.3614,-11.312 -1.00813,-10.96663c-12.50746,1.82303 -24.17815,-6.66738 -26.0672,-18.96393c-1.15056,-7.48946 -19.07142,-17.90825 6.73972,-19.53981c4.54167,-0.28709 7.59708,-5.31323 12.48664,-6.0259c4.5847,-0.66825 9.89827,4.84287 12.97626,1.83204c21.11833,-20.65755 11.89434,9.34273 13.09094,17.13189z" fill="#ffffff"/></g></g></svg>