<svg version="1.1" xmlns="http://www.w3.org/2000/svg" xmlns:xlink="http://www.w3.org/1999/xlink" width="1620.16208" height="360.38695" viewBox="0,0,1620.16208,360.38695"><defs><radialGradient cx="320" cy="179.99999" r="172.3181" gradientUnits="userSpaceOnUse" id="color-1"><stop offset="0" stop-color="#2484ff" stop-opacity="0.7451"/><stop offset="1" stop-color="#2484ff" stop-opacity="0"/></radialGradient></defs><g transform="translate(519.66209,-6.31079)"><g data-paper-data="{&quot;isPaintingLayer&quot;:true}" fill-rule="nonzero" stroke-linejoin="miter" stroke-miterlimit="10" stroke-dasharray="" stroke-dashoffset="0" style="mix-blend-mode: normal"><path d="M-493.99948,317.5l9.52697,-289c0,0 -72.09803,-22.10346 -6.36167,-22.18813c136.56077,-0.17588 834.80987,21.18813 834.80987,21.18813c0,0 68.78838,79.77521 84.98415,109.25213c19.09649,34.75633 6.38778,117.76079 -12.42626,172.75936c-11.81138,34.52789 -30.87601,54.98851 -30.87601,54.98851c0,0 -718.2022,4.60276 -876.11904,0.48627c-63.5698,-1.65711 -3.53803,-47.48627 -3.53803,-47.48627z" fill="#ffffff" stroke="none" stroke-width="0" stroke-linecap="butt"/><g stroke="none" stroke-width="0" stroke-linecap="butt"><g><path d="M674.84568,277.68607l-16.21783,-145.49975l51.60754,-74.93704l103.8763,32.07536l-20.90798,49.69555l-64.03956,-18.80883l-22.30509,80.71288l37.09789,40.20683l34.62559,-21.09068l-15.29416,-38.23896l64.00487,0.52886l-9.58303,76.82331l-51.23384,39.90527z" fill="#191919"/><path d="M503.70672,278.67174l-16.21783,-145.49976l51.60754,-74.93704l103.8763,32.07535l-20.90798,49.69555l-64.03956,-18.80883l-22.30509,80.71288l37.09789,40.20683l34.62559,-21.09068l-15.29416,-38.23896l64.00487,0.52886l-9.58303,76.82331l-51.23384,39.90528z" fill="#191919"/><path d="M848.26989,87.16992l82.30402,-2.15473l38.68924,57.51285l-16.58545,29.28156l26.79403,52.02987l-12.1758,34.78675l-33.51757,19.20182l-90.6424,21.26092zM895.45631,159.47088c1.67786,0.06619 12.49704,-11.29415 12.56115,-12.67247c0.06411,-1.37832 -14.21163,-20.39601 -15.88949,-20.4622c-1.67786,-0.06619 1.65047,33.06848 3.32834,33.13467zM903.80031,241.80847c1.67786,0.06619 13.36912,-12.59319 13.43323,-13.97151c0.06411,-1.37832 -15.70806,-23.12202 -17.38593,-23.18821c-1.67786,-0.06619 2.27484,37.09353 3.9527,37.15972z" fill="#191919"/><path d="M692.36242,281.01559l-16.21783,-145.49976l51.60754,-74.93704l103.8763,32.07536l-20.90798,49.69555l-64.03956,-18.80883l-22.30509,80.71288l37.09789,40.20683l34.62559,-21.09068l-15.29416,-38.23896l64.00487,0.52886l-9.58303,76.82331l-51.23384,39.90528z" fill="#575757"/><path d="M521.22347,282.00126l-16.21783,-145.49976l51.60754,-74.93704l103.8763,32.07535l-20.90798,49.69555l-64.03956,-18.80883l-22.30509,80.71288l37.09789,40.20683l34.62559,-21.09068l-15.29416,-38.23896l64.00487,0.52886l-9.58303,76.82331l-51.23384,39.90528z" fill="#575757"/><path d="M865.78663,81.62072l82.30402,6.72399l38.68924,57.51285l-16.58545,29.28156l26.79403,52.02987l-12.1758,34.78675l-33.51757,19.20181l-90.6424,12.3822zM912.97306,162.80039c1.67786,0.06619 12.49704,-11.29415 12.56115,-12.67247c0.06411,-1.37832 -14.21163,-20.39601 -15.88949,-20.4622c-1.67786,-0.06619 1.65047,33.06848 3.32834,33.13467zM921.31705,245.13798c1.67786,0.06619 13.36912,-12.59319 13.43323,-13.97151c0.06411,-1.37832 -15.70806,-23.12202 -17.38593,-23.18821c-1.67786,-0.06619 2.27484,37.09353 3.9527,37.15972z" fill="#575757"/></g><path d="M1068.49999,232.00149c-2.20914,0 -4,-1.79086 -4,-4v-71c0,-2.20914 1.79086,-4 4,-4h28c2.20914,0 4,1.79086 4,4v71c0,2.20914 -1.79086,4 -4,4z" fill="#ffffff"/></g><path d="M490.38457,177.02631c1.6607,95.15417 -73.2768,173.62323 -167.37759,175.26555c-94.1008,1.64232 -171.73084,-74.16401 -173.39154,-169.31818c-1.6607,-95.15416 73.2768,-173.62322 167.3776,-175.26554c94.1008,-1.64232 171.73083,74.16401 173.39153,169.31818z" fill="url(#color-1)" stroke="none" stroke-width="0" stroke-linecap="butt"/><g stroke="none" stroke-width="1" stroke-linecap="butt"><path d="M253.6859,66.32721c-16.12519,23.54745 -41.02775,62.46761 -57.29929,85.89108c-2.01533,2.90114 20.80675,55.71699 20.80675,55.71699c0,0 63.85992,30.34574 85.32832,52.28978c7.15179,7.31023 -9.77026,24.69605 -9.50878,25.04528c-2.19438,-0.51468 -29.40001,0.2359 -51.72007,-5.78456c-1.28895,-0.34767 -62.38689,-57.32927 -62.38689,-57.32927l-9.45205,-56.04022l17.36637,-73.3838c0,0 67.58154,-27.45066 66.86567,-26.40526z" data-paper-data="{&quot;index&quot;:null}" fill="#191919"/><path d="M378.10084,298.35041c3.20424,0.10936 4.89911,-0.61112 5.56884,-3.73847c1.33874,-6.25123 14.7459,-49.08638 14.7459,-49.08638c0,0 1.37952,-80.12463 1.76469,-81.24738c0.56393,0.74806 17.51364,-30.11585 25.71611,-19.40864c9.71235,12.67815 16.40668,44.79386 23.05656,55.54588c1.69084,2.7339 -16.14043,102.98832 -31.6853,135.85152c-1.99519,4.218 -4.38832,5.37429 -9.33958,4.7979c-17.5742,-2.0459 -141.08739,-50.35984 -141.08739,-50.35984c0,0 22.74951,-13.48055 21.94051,-14.15493c22.09213,0.68615 72.91997,21.2407 89.31965,21.80033z" data-paper-data="{&quot;index&quot;:null}" fill="#191919"/><path d="M389.63901,77.78763c10.03242,21.72646 66.22312,103.95464 65.83248,104.07465c-4.26447,-6.62051 -40.58419,-9.82982 -44.86766,-16.43696c-11.4066,-17.59447 -34.23587,-52.77214 -34.23587,-52.77214l-56.31256,-21.85898l-74.17792,10.27414c0,0 20.34436,-31.50696 20.81286,-33.11528c1.93105,-6.62931 9.24929,-6.29314 14.08692,-8.22406c14.87191,-5.93598 45.14545,-10.3617 47.5239,-9.6984c15.18853,4.23575 57.62578,19.71804 61.33786,27.75703z" data-paper-data="{&quot;index&quot;:null}" fill="#191919"/><path d="M268.26482,42.0691c-16.12519,23.54745 -41.02775,62.46761 -57.29929,85.89108c-2.01533,2.90115 20.80675,55.71699 20.80675,55.71699c0,0 74.77315,75.9375 75.81953,77.33507c-2.19438,-0.51468 -29.40001,0.2359 -51.72007,-5.78457c-1.28895,-0.34767 -62.38689,-57.32927 -62.38689,-57.32927l-9.45205,-56.04022l4.7697,-50.16045c0,0 80.17821,-50.67401 79.46233,-49.62861z" data-paper-data="{&quot;index&quot;:null}" fill="#575757"/><path d="M392.67975,274.09231c3.20424,0.10936 4.89911,-0.61112 5.56884,-3.73847c1.33874,-6.25123 14.7459,-49.08638 14.7459,-49.08638c0,0 -6.1871,-74.32505 -5.80192,-75.44779c1.23167,1.63384 31.93294,31.22013 44.19892,51.05266c1.69084,2.7339 -28.48491,117.58979 -33.43617,117.01339c-27.0381,-3.14763 -48.9366,-6.13792 -74.89968,-14.18326c-20.40528,-6.32313 -40.15635,-14.24148 -58.53494,-25.00324c-1.40399,-0.8221 -2.53154,-2.06452 -4.84283,-3.99119c22.09213,0.68615 42.43794,1.31806 63.29372,1.96989c16.9093,0.46745 33.30849,0.85475 49.70818,1.41439z" data-paper-data="{&quot;index&quot;:null}" fill="#575757"/><path d="M404.21792,53.52953c10.03242,21.72647 51.66166,129.21258 51.27102,129.3326c-4.26447,-6.62051 -26.02273,-35.08776 -30.3062,-41.6949c-11.4066,-17.59447 -34.23587,-52.77214 -34.23587,-52.77214l-56.31256,-21.85898l-74.17792,10.27414c0,0 22.37895,-29.54216 22.84746,-31.15048c1.93105,-6.62931 7.2147,-8.25793 12.05233,-10.18886c14.87191,-5.93598 45.14545,-10.3617 47.5239,-9.6984c15.18853,4.23575 57.62578,19.71804 61.33786,27.75703z" data-paper-data="{&quot;index&quot;:null}" fill="#575757"/></g><path d="M376.5305,162.44339c0.48187,27.61004 -20.39074,50.36349 -46.62026,50.82127c-26.22953,0.45778 -47.8834,-21.55347 -48.36527,-49.16351c-0.48187,-27.61004 20.39074,-50.36349 46.62026,-50.82127c26.22953,-0.45778 47.8834,21.55347 48.36527,49.16351z" fill="#ffffff" stroke="none" stroke-width="0" stroke-linecap="butt"/><path d="M308.73064,149.36254l-88.92278,-23.45186l58.39875,-92.27113l-38.57172,82.1856l84.52203,0.52516z" fill="#ffffff" stroke="none" stroke-width="0" stroke-linecap="round"/><path d="M375.26591,173.00457l4.59623,91.43372l-110.48317,1.92824l37.49429,-0.65438l31.73338,-15.55612l8.5388,-55.1574z" fill="#ffffff" stroke="none" stroke-width="0" stroke-linecap="round"/><path d="M390.99383,115.87984l-22.05246,35.39021l-30.29928,-35.98784l52.02872,-17.91063l51.75076,80.7759z" fill="#ffffff" stroke="none" stroke-width="0" stroke-linecap="round"/><path d="M249.76455,98.6541l12.61412,-22.2235l26.01114,-37.79298" fill="none" stroke-opacity="0.33333" stroke="#72a4ff" stroke-width="4" stroke-linecap="round"/><path d="M209.66085,128.72052l58.83507,-86.37317" fill="none" stroke-opacity="0.33333" stroke="#72a4ff" stroke-width="4" stroke-linecap="round"/><path d="M282.4242,272.82226l112.73677,3.03319" fill="none" stroke-opacity="0.33333" stroke="#72a4ff" stroke-width="4" stroke-linecap="round"/><path d="M291.59499,244.32456l13.27141,15.43742l-26.63934,1.79847" fill="none" stroke-opacity="0.33333" stroke="#72a4ff" stroke-width="4" stroke-linecap="round"/><path d="M408.40428,148.16601l40.7908,44.96171" fill="none" stroke-opacity="0.33333" stroke="#72a4ff" stroke-width="4" stroke-linecap="round"/><path d="M453.95583,179.37588l-59.83679,-85.63554" fill="none" stroke-opacity="0.33333" stroke="#72a4ff" stroke-width="4" stroke-linecap="round"/><path d="M346.71305,106.05522l-5.71134,2.09374c-11.01296,-4.10058 -23.0784,-4.6665 -34.64236,-0.81899c-2.80509,0.93329 -5.47822,2.09218 -8.00916,3.45336l-44.98819,-0.6244" fill="none" stroke="#ffffff" stroke-width="3" stroke-linecap="butt"/><path d="M385.00569,256.20537l-4.60496,-73.23176c2.35332,-10.72196 1.96349,-22.44427 -1.69324,-33.97409l6.52329,-13.61197" fill="none" stroke="#ffffff" stroke-width="3" stroke-linecap="butt"/><path d="M223.04242,137.95572l47.11501,15.58076c-1.24721,9.51453 -0.38458,19.63002 2.92528,29.57807c9.10566,27.36777 33.80029,44.65381 58.87361,43.25675l-2.43165,16.59607l-13.47845,10.90353" fill="none" stroke="#ffffff" stroke-width="3" stroke-linecap="butt"/></g></g></svg>