<svg version="1.1" xmlns="http://www.w3.org/2000/svg" xmlns:xlink="http://www.w3.org/1999/xlink" width="653.69904" height="397.4024" viewBox="0,0,653.69904,397.4024"><defs><radialGradient cx="312.49519" cy="124.75027" r="80.41694" gradientUnits="userSpaceOnUse" id="color-1"><stop offset="0" stop-color="#2483ff" stop-opacity="0.4"/><stop offset="1" stop-color="#2483ff" stop-opacity="0"/></radialGradient><linearGradient x1="-4.82583" y1="187.88116" x2="94.27327" y2="187.88116" gradientUnits="userSpaceOnUse" id="color-2"><stop offset="0" stop-color="#ffffff"/><stop offset="1" stop-color="#ffffff" stop-opacity="0"/></linearGradient><linearGradient x1="639.81382" y1="182.37065" x2="540.71472" y2="182.37065" gradientUnits="userSpaceOnUse" id="color-3"><stop offset="0" stop-color="#ffffff"/><stop offset="1" stop-color="#ffffff" stop-opacity="0"/></linearGradient><linearGradient x1="308.9376" y1="-6.63722" x2="308.9376" y2="84.95437" gradientUnits="userSpaceOnUse" id="color-4"><stop offset="0" stop-color="#ffffff"/><stop offset="1" stop-color="#ffffff" stop-opacity="0"/></linearGradient><linearGradient x1="316.9406" y1="370.73515" x2="316.9406" y2="279.14356" gradientUnits="userSpaceOnUse" id="color-5"><stop offset="0" stop-color="#ffffff"/><stop offset="1" stop-color="#ffffff" stop-opacity="0"/></linearGradient></defs><g transform="translate(13.88523,13.5753)"><g data-paper-data="{&quot;isPaintingLayer&quot;:true}" fill-rule="nonzero" stroke-linejoin="miter" stroke-miterlimit="10" stroke-dasharray="" stroke-dashoffset="0" style="mix-blend-mode: normal"><path d="M392.0219,124.75027c0,44.41305 -35.60532,80.41694 -79.5267,80.41694c-43.92138,0 -79.52671,-36.00389 -79.52671,-80.41694c0,-44.41304 35.60532,-80.41692 79.52671,-80.41692c43.92138,0 79.5267,36.00388 79.5267,80.41693z" fill="url(#color-1)" stroke="none" stroke-width="0" stroke-linecap="butt"/><g stroke="none" stroke-width="1" stroke-linecap="butt"><path d="M283.20729,78.45937c-7.71587,10.85607 -19.65251,28.81367 -27.43566,39.61069c-0.96399,1.33728 9.25482,26.16734 9.25482,26.16734c0,0 29.55032,14.67956 39.38889,25.09362c3.27754,3.46925 -4.75997,11.44377 -4.64081,11.60885c-1.01972,-0.25802 -13.72014,-0.12935 -24.0858,-3.1203c-0.59861,-0.17272 -28.64325,-27.25824 -28.64325,-27.25824l-3.95402,-26.22569l8.70086,-34.09991c0,0 31.75751,-12.25829 31.41496,-11.77634z" data-paper-data="{&quot;index&quot;:null}" fill="#191919"/><path d="M339.37056,187.73601c1.49422,0.07712 2.29093,-0.24525 2.6289,-1.69904c0.67557,-2.90597 7.28028,-22.78393 7.28028,-22.78393c0,0 1.29619,-37.37541 1.48506,-37.89615c0.25705,0.35365 8.41722,-13.90963 12.15735,-8.84678c4.4286,5.9948 7.29067,21.03471 10.30599,26.10582c0.7667,1.28942 -8.36992,47.92354 -15.89087,63.13112c-0.96532,1.9519 -2.09138,2.47195 -4.39697,2.16267c-8.18357,-1.09775 -65.42214,-24.64716 -65.42214,-24.64716c0,0 10.72484,-6.10484 10.35285,-6.4261c10.30273,0.50007 33.85193,10.50487 41.49957,10.89955z" data-paper-data="{&quot;index&quot;:null}" fill="#191919"/><path d="M346.55051,84.91402c4.50426,10.2194 30.05356,49.04517 29.87031,49.09799c-1.93592,-3.1239 -18.85679,-4.91716 -20.80167,-8.03497c-5.17911,-8.30258 -15.54492,-24.9026 -15.54492,-24.9026l-26.09778,-10.65812l-34.69554,4.1899c0,0 9.74938,-14.53566 9.98108,-15.2823c0.95502,-3.07755 4.36703,-2.8611 6.64003,-3.72268c6.98767,-2.64866 21.14953,-4.46719 22.25392,-4.13832c7.05257,2.10012 26.72797,9.66984 28.39459,13.45112z" data-paper-data="{&quot;index&quot;:null}" fill="#191919"/><path d="M290.20743,67.25911c-7.71587,10.85607 -19.65251,28.81366 -27.43566,39.61069c-0.96399,1.33729 9.25482,26.16733 9.25482,26.16733c0,0 34.27121,36.04183 34.74808,36.70247c-1.01972,-0.25802 -13.72015,-0.12935 -24.0858,-3.1203c-0.59861,-0.17272 -28.64324,-27.25824 -28.64324,-27.25824l-3.95402,-26.22569l2.63405,-23.36633c0,0 37.82432,-22.99187 37.48177,-22.50991z" data-paper-data="{&quot;index&quot;:null}" fill="#575757"/><path d="M346.37072,176.53576c1.49422,0.07712 2.29093,-0.24526 2.6289,-1.69904c0.67557,-2.90597 7.28027,-22.78393 7.28027,-22.78393c0,0 -2.28167,-34.7309 -2.0928,-35.25165c0.5614,0.77239 14.64587,14.82755 20.20774,24.18142c0.7667,1.28942 -14.24883,54.63615 -16.55443,54.32689c-12.59051,-1.6889 -22.78414,-3.26251 -34.83316,-7.22795c-9.46974,-3.11658 -18.62122,-6.97218 -27.10915,-12.14335c-0.64841,-0.39503 -1.16442,-0.98394 -2.22719,-1.90175c10.30273,0.50007 19.79107,0.96061 29.5172,1.4346c7.88618,0.35582 15.53499,0.67008 23.18262,1.06476z" data-paper-data="{&quot;index&quot;:null}" fill="#575757"/><path d="M353.55068,73.71376c4.50426,10.2194 23.0534,60.7121 22.87014,60.76492c-1.93592,-3.1239 -11.85663,-16.58408 -13.80151,-19.7019c-5.17911,-8.30258 -15.54492,-24.9026 -15.54492,-24.9026l-26.09778,-10.65811l-34.69554,4.1899c0,0 10.68274,-13.60231 10.91444,-14.34894c0.95502,-3.07755 3.43367,-3.79445 5.70666,-4.65604c6.98767,-2.64866 21.14953,-4.46719 22.25392,-4.13832c7.05257,2.10012 26.72797,9.66984 28.39459,13.45112z" data-paper-data="{&quot;index&quot;:null}" fill="#575757"/></g><path d="M339.7446,124.30816c0,12.88693 -9.92459,23.33386 -22.16717,23.33386c-12.24259,0 -22.16717,-10.44692 -22.16717,-23.33386c0,-12.88693 9.92459,-23.33386 22.16717,-23.33386c12.24259,0 22.16717,10.44693 22.16717,23.33386z" fill="#ffffff" stroke="none" stroke-width="0" stroke-linecap="butt"/><path d="M308.21529,117.65243l-41.30094,-11.66693l50.59824,-76.83959l-41.26469,72.29508l39.43422,0.93335z" fill="#ffffff" stroke="none" stroke-width="0" stroke-linecap="round"/><path d="M339.06853,129.22579l1.40003,42.70097l-86.55767,2.18686l67.42391,-9.18702l4.43344,-25.66725z" fill="#ffffff" stroke="none" stroke-width="0" stroke-linecap="round"/><path d="M346.87248,102.69911l-10.57802,16.33371l-13.84476,-17.03889l24.42278,-7.93351l50.46076,70.18599z" fill="#ffffff" stroke="none" stroke-width="0" stroke-linecap="round"/><path d="M281.1143,93.51136l6.0668,-10.2669l12.44473,-17.42262" fill="none" stroke-opacity="0.33333" stroke="#72a4ff" stroke-width="4" stroke-linecap="round"/><path d="M290.313,67.39082l-28.15619,39.82313" fill="none" stroke-opacity="0.33333" stroke="#72a4ff" stroke-width="4" stroke-linecap="round"/><path d="M294.93515,175.04527l52.57897,2.33338" fill="none" stroke-opacity="0.33333" stroke="#72a4ff" stroke-width="4" stroke-linecap="round"/><path d="M299.44636,161.82275l6.06681,7.31128l-12.44473,0.62223" fill="none" stroke-opacity="0.33333" stroke="#72a4ff" stroke-width="4" stroke-linecap="round"/><path d="M354.73338,117.90582l18.66708,21.31159" fill="none" stroke-opacity="0.33333" stroke="#72a4ff" stroke-width="4" stroke-linecap="round"/><path d="M348.51102,92.39413l27.22283,40.44536" fill="none" stroke-opacity="0.33333" stroke="#72a4ff" stroke-width="4" stroke-linecap="round"/><path d="M326.2908,97.75428l-2.682,0.93044c-5.10532,-2.00304 -10.73052,-2.36535 -16.15767,-0.66426c-1.31647,0.41264 -2.5732,0.93161 -3.76524,1.54613l-20.98668,-0.65771" fill="none" stroke="#ffffff" stroke-width="1.5" stroke-linecap="butt"/><path d="M342.93562,168.12711l-1.55234,-34.20789c1.18539,-4.98377 1.09896,-10.45665 -0.5134,-15.86631l3.15466,-6.29831" fill="none" stroke="#ffffff" stroke-width="1.5" stroke-linecap="butt"/><path d="M268.32554,111.63213l21.85728,7.65376c-0.65944,4.42938 -0.33931,9.15635 1.12408,13.82512c4.02589,12.84412 15.40778,21.111 27.11853,20.66331l-1.26977,7.72403l-6.37793,4.97789" fill="none" stroke="#ffffff" stroke-width="1.5" stroke-linecap="butt"/><text transform="translate(324.75,269.42022) scale(0.3367,0.3367)" font-size="40" xml:space="preserve" fill="#000000" fill-rule="nonzero" stroke="none" stroke-width="1" stroke-linecap="butt" stroke-linejoin="miter" stroke-miterlimit="10" stroke-dasharray="" stroke-dashoffset="0" font-family="Malgun Gothic" font-weight="normal" text-anchor="middle" style="mix-blend-mode: normal"><tspan x="0" dy="0">GGB is a tool designed to capture and record keystrokes entered in</tspan><tspan x="0" dy="46.150000000000006px">the password fields within the GoGuardian Restricted Page.</tspan></text><text transform="translate(-10.5,78.5) scale(0.5,0.5)" font-size="40" xml:space="preserve" fill="#ffffff" fill-rule="nonzero" stroke="none" stroke-width="1" stroke-linecap="butt" stroke-linejoin="miter" stroke-miterlimit="10" stroke-dasharray="" stroke-dashoffset="0" font-family="Malgun Gothic" font-weight="normal" text-anchor="middle" style="mix-blend-mode: normal"><tspan x="0" dy="0"> </tspan></text><text transform="translate(97.84005,245) scale(0.65168,0.65168)" font-size="40" xml:space="preserve" fill="#000000" fill-rule="nonzero" stroke="none" stroke-width="1" stroke-linecap="butt" stroke-linejoin="miter" stroke-miterlimit="10" stroke-dasharray="" stroke-dashoffset="0" font-family="Malgun Gothic" font-weight="normal" text-anchor="start" style="mix-blend-mode: normal"><tspan x="0" dy="0">The Ultimate GoGuardian Bypass Tool</tspan></text><path d="M-4.82583,383.8271v-391.89189h99.0991v391.89189z" fill="url(#color-2)" stroke="none" stroke-width="0" stroke-linecap="butt"/><path d="M540.71472,378.31659v-391.89189h99.0991v391.8919z" data-paper-data="{&quot;index&quot;:null}" fill="url(#color-3)" stroke="none" stroke-width="0" stroke-linecap="butt"/><path d="M-13.88523,84.95437v-91.59159h645.64565v91.59159z" fill="url(#color-4)" stroke="none" stroke-width="0" stroke-linecap="butt"/><path d="M639.76342,279.14356v91.59159h-645.64565v-91.59159z" data-paper-data="{&quot;index&quot;:null}" fill="url(#color-5)" stroke="none" stroke-width="0" stroke-linecap="butt"/></g></g></svg>