<svg version="1.1" xmlns="http://www.w3.org/2000/svg" xmlns:xlink="http://www.w3.org/1999/xlink" width="214.34621" height="215.5444" viewBox="0,0,214.34621,215.5444"><defs><radialGradient cx="319.45864" cy="180.9452" r="66.62483" gradientUnits="userSpaceOnUse" id="color-1"><stop offset="0" stop-color="#4a88ff"/><stop offset="1" stop-color="#4a88ff" stop-opacity="0"/></radialGradient></defs><g transform="translate(-212.188,-88.7318)"><g data-paper-data="{&quot;isPaintingLayer&quot;:true}" fill-rule="nonzero" stroke="none" stroke-width="0" stroke-linecap="butt" stroke-linejoin="miter" stroke-miterlimit="10" stroke-dasharray="" stroke-dashoffset="0" style="mix-blend-mode: normal"><path d="M319.45864,246.76733c-36.79588,0 -66.62483,-29.46957 -66.62483,-65.82213c0,-36.35256 29.82895,-65.82213 66.62483,-65.82213c36.79588,0 66.62483,29.46957 66.62483,65.82213c0,36.35256 -29.82895,65.82213 -66.62483,65.82213z" fill="url(#color-1)"/><path d="M312.58596,304.27619c0,0 -17.49256,-13.59717 -33.38415,-30.37549c-15.31282,-16.16725 -29.04615,-35.49744 -29.04615,-37.58249c0,-20.96718 1.95095,-60.47935 1.95095,-60.47935c0,0 25.70177,39.32289 37.76214,55.65466c9.3847,12.70847 28.60777,34.22138 28.60777,34.22138l74.42343,-38.17595c0,0 -24.15473,32.60393 -38.25754,45.9645c-12.46609,11.80999 -42.05643,30.77275 -42.05643,30.77275z" fill="#565756"/><path d="M212.188,112.22573c0,0 20.43596,-8.55828 42.85652,-14.15949c21.60399,-5.39722 45.18725,-7.86503 47.00345,-6.84088c18.26357,10.29875 51.72261,31.40588 51.72261,31.40588c0,0 -46.87673,3.0729 -67.02648,5.55624c-15.67941,1.9324 -43.86042,8.10994 -43.86042,8.10994l-3.30223,83.57839c0,0 -16.53543,-37.05466 -21.24613,-55.90149c-4.164,-16.65954 -6.14732,-51.74858 -6.14732,-51.74858z" fill="#565756"/><path d="M426.53421,116.3842c0,0 -2.30377,22.03554 -8.15431,44.39234c-5.63747,21.54254 -14.7949,43.41495 -16.56525,44.51646c-17.8025,11.07672 -52.38157,30.29406 -52.38157,30.29406c0,0 19.80974,-42.5963 27.30513,-61.46422c5.83249,-14.68196 13.94305,-42.36861 13.94305,-42.36861l-71.7309,-43.02243c0,0 40.44353,3.28466 59.23786,8.20064c16.61313,4.34545 48.34599,19.45176 48.34599,19.45176z" data-paper-data="{&quot;index&quot;:null}" fill="#565756"/><path d="M360.71482,180.9452c0,23.29153 -18.47099,42.17296 -41.25617,42.17296c-22.78512,0 -41.25617,-18.88143 -41.25617,-42.17296c0,-23.29153 18.47099,-42.17296 41.25617,-42.17296c22.78512,0 41.25617,18.88143 41.25617,42.17296z" fill="#ffffff"/></g></g></svg>