<svg version="1.1" xmlns="http://www.w3.org/2000/svg" xmlns:xlink="http://www.w3.org/1999/xlink" width="340.82103" height="344.63619" viewBox="0,0,340.82103,344.63619"><defs><radialGradient cx="320.00001" cy="180" r="172.3181" gradientUnits="userSpaceOnUse" id="color-1"><stop offset="0" stop-color="#2484ff" stop-opacity="0.7451"/><stop offset="1" stop-color="#2484ff" stop-opacity="0"/></radialGradient></defs><g transform="translate(-149.58949,-7.6819)"><g data-paper-data="{&quot;isPaintingLayer&quot;:true}" fill-rule="nonzero" stroke-linejoin="miter" stroke-miterlimit="10" stroke-dasharray="" stroke-dashoffset="0" style="mix-blend-mode: normal"><path d="M490.41052,180c0,95.16866 -76.29539,172.3181 -170.41051,172.3181c-94.11513,0 -170.41052,-77.14944 -170.41052,-172.3181c0,-95.16865 76.29539,-172.31809 170.41052,-172.31809c94.11513,0 170.41051,77.14944 170.41051,172.3181z" fill="url(#color-1)" stroke="none" stroke-width="0" stroke-linecap="butt"/><g stroke="none" stroke-width="1" stroke-linecap="butt"><path d="M258.17961,63.18733c-16.53364,23.26248 -42.11157,61.74216 -58.78937,84.87812c-2.06565,2.86553 19.83131,56.07159 19.83131,56.07159c0,0 63.32066,31.45548 84.40286,53.77081c7.02314,7.43392 -10.19972,24.5218 -9.94438,24.87554c-2.18506,-0.55289 -29.39965,-0.27717 -51.61125,-6.6862c-1.28269,-0.37011 -61.37699,-58.4092 -61.37699,-58.4092l-8.4727,-56.19663l18.64428,-73.06958c0,0 68.05027,-26.26717 67.31626,-25.23443z" data-paper-data="{&quot;index&quot;:null}" fill="#191919"/><path d="M376.02677,296.34626c3.20184,0.16526 4.90903,-0.52554 5.63323,-3.64072c1.44762,-6.22692 15.60022,-48.82159 15.60022,-48.82159c0,0 2.77749,-80.08836 3.1822,-81.20421c0.55079,0.75779 18.0365,-29.80565 26.05088,-18.95694c9.48964,12.8457 15.62252,45.07334 22.08377,55.93976c1.64288,2.76299 -17.93513,102.69099 -34.0511,135.27792c-2.06849,4.18254 -4.48143,5.2969 -9.42188,4.63419c-17.53582,-2.35226 -140.18712,-52.81416 -140.18712,-52.81416c0,0 22.98128,-13.08152 22.18417,-13.76991c22.07679,1.07156 72.53821,22.50993 88.92563,23.35565z" data-paper-data="{&quot;index&quot;:null}" fill="#191919"/><path d="M390.91203,80.51841c9.65176,21.89822 64.39902,105.09441 64.00634,105.20759c-4.14829,-6.69392 -40.40648,-10.53652 -44.574,-17.2174c-11.09784,-17.79084 -33.30978,-53.36152 -33.30978,-53.36152l-55.92254,-22.83831l-74.34591,8.97816c0,0 20.89106,-31.14715 21.38756,-32.74705c2.04644,-6.5946 9.3577,-6.13078 14.22829,-7.97699c14.97323,-5.67556 45.31939,-9.57233 47.6859,-8.86763c15.1123,4.50015 57.27292,20.72061 60.84416,28.82316z" data-paper-data="{&quot;index&quot;:null}" fill="#191919"/><path d="M270.67961,41.18732c-16.53364,23.26248 -42.11157,61.74216 -58.78937,84.87812c-2.06565,2.86554 19.83131,56.07159 19.83131,56.07159c0,0 73.43665,77.23074 74.45848,78.64635c-2.18506,-0.55289 -29.39965,-0.27717 -51.61125,-6.68621c-1.28269,-0.37011 -61.37699,-58.4092 -61.37699,-58.4092l-8.4727,-56.19663l5.64428,-50.06958c0,0 81.05027,-49.26717 80.31626,-48.23443z" data-paper-data="{&quot;index&quot;:null}" fill="#575757"/><path d="M391.02677,275.34626c3.20184,0.16526 4.90903,-0.52554 5.63323,-3.64072c1.44762,-6.22692 15.60022,-48.82159 15.60022,-48.82159c0,0 -4.88918,-74.4217 -4.48446,-75.53755c1.20297,1.65508 31.38328,31.77261 43.30132,51.81616c1.64288,2.76299 -30.53253,117.07482 -35.47298,116.41211c-26.97906,-3.61897 -48.82204,-6.99093 -74.64078,-15.48811c-20.29183,-6.67824 -39.90172,-14.94004 -58.08972,-26.02087c-1.38943,-0.84647 -2.49513,-2.10838 -4.77245,-4.07509c22.07679,1.07156 42.40848,2.05841 63.24971,3.07407c16.89857,0.76245 33.2885,1.43586 49.67593,2.28159z" data-paper-data="{&quot;index&quot;:null}" fill="#575757"/><path d="M406.41203,55.0184c9.65176,21.89823 49.39902,130.09441 49.00634,130.20759c-4.14829,-6.69392 -25.40648,-35.53652 -29.574,-42.2174c-11.09784,-17.79084 -33.30978,-53.36152 -33.30978,-53.36152l-55.92254,-22.83831l-74.34591,8.97816c0,0 22.89106,-29.14715 23.38756,-30.74705c2.04644,-6.5946 7.3577,-8.13078 12.22829,-9.97699c14.97323,-5.67556 45.31939,-9.57233 47.6859,-8.86763c15.1123,4.50015 57.27292,20.72061 60.84416,28.82316z" data-paper-data="{&quot;index&quot;:null}" fill="#575757"/></g><path d="M376.82826,163.43253c0,27.61424 -21.26648,50 -47.5,50c-26.23352,0 -47.5,-22.38576 -47.5,-50c0,-27.61424 21.26648,-50 47.5,-50c26.23352,0 47.5,22.38576 47.5,50z" fill="#ffffff" stroke="none" stroke-width="0" stroke-linecap="butt"/><path d="M309.26699,149.17056l-88.5,-25l60,-91.23802l-40,81.5l84.5,2z" fill="#ffffff" stroke="none" stroke-width="0" stroke-linecap="round"/><path d="M375.37957,173.97004l3,91.5h-110.5h37.5l32,-15l9.5,-55z" fill="#ffffff" stroke="none" stroke-width="0" stroke-linecap="round"/><path d="M392.10193,117.12846l-22.66667,35l-29.66667,-36.51109l52.33334,-17l50.33333,81.66666z" fill="#ffffff" stroke="none" stroke-width="0" stroke-linecap="round"/><path d="M251.19475,97.44087l13,-22l26.66667,-37.33333" fill="none" stroke-opacity="0.33333" stroke="#72a4ff" stroke-width="4" stroke-linecap="round"/><path d="M210.57249,126.8029l60.33333,-85.33334" fill="none" stroke-opacity="0.33333" stroke="#72a4ff" stroke-width="4" stroke-linecap="round"/><path d="M280.81018,272.15243l112.66667,5" fill="none" stroke-opacity="0.33333" stroke="#72a4ff" stroke-width="4" stroke-linecap="round"/><path d="M290.47685,243.8191l13,15.66666l-26.66667,1.33334" fill="none" stroke-opacity="0.33333" stroke="#72a4ff" stroke-width="4" stroke-linecap="round"/><path d="M408.94633,149.71353l40,45.66667" fill="none" stroke-opacity="0.33333" stroke="#72a4ff" stroke-width="4" stroke-linecap="round"/><path d="M453.94633,181.71353l-58.33333,-86.66666" fill="none" stroke-opacity="0.33333" stroke="#72a4ff" stroke-width="4" stroke-linecap="round"/><path d="M347.99933,106.53263l-5.74701,1.99376c-10.93973,-4.29213 -22.99345,-5.06851 -34.62279,-1.42338c-2.82095,0.8842 -5.51389,1.99627 -8.0682,3.31307l-44.97044,-1.40935" fill="none" stroke="#ffffff" stroke-width="3" stroke-linecap="butt"/><path d="M383.666,257.32813l-3.32636,-73.30097c2.54006,-10.67926 2.35485,-22.40659 -1.10013,-33.99846l6.75983,-13.49607" fill="none" stroke="#ffffff" stroke-width="3" stroke-linecap="butt"/><path d="M223.79087,136.27021l46.83595,16.40055c-1.41305,9.49132 -0.72707,19.62032 2.40869,29.62461c8.6267,27.5225 33.01593,45.23683 58.10981,44.27752l-2.72088,16.55111l-13.66667,10.66667" fill="none" stroke="#ffffff" stroke-width="3" stroke-linecap="butt"/></g></g></svg>